<svg width="32" height="28" viewBox="0 0 32 28" fill="none" xmlns="http://www.w3.org/2000/svg">
<mask id="path-1-inside-1_312_207" fill="white">
<path fill-rule="evenodd" clip-rule="evenodd" d="M12.2806 3.667L4.21296 0L5.08536 10.124C4.3031 11.7048 3.86816 13.4565 3.86816 15.2998C3.86816 22.3139 10.1655 28 17.9338 28C23.0072 28 27.4533 25.5746 29.9274 21.9379L29.9343 21.9427L29.9356 21.9259C31.2447 19.9969 31.9993 17.7279 31.9993 15.2998C31.9993 13.5243 31.5958 11.8338 30.867 10.2992L31.6873 0.0603099L23.738 3.72792C21.9685 3.00317 20.0033 2.59959 17.9338 2.59959C15.9229 2.59959 14.0106 2.98059 12.2806 3.667Z"/>
</mask>
<path fill-rule="evenodd" clip-rule="evenodd" d="M12.2806 3.667L4.21296 0L5.08536 10.124C4.3031 11.7048 3.86816 13.4565 3.86816 15.2998C3.86816 22.3139 10.1655 28 17.9338 28C23.0072 28 27.4533 25.5746 29.9274 21.9379L29.9343 21.9427L29.9356 21.9259C31.2447 19.9969 31.9993 17.7279 31.9993 15.2998C31.9993 13.5243 31.5958 11.8338 30.867 10.2992L31.6873 0.0603099L23.738 3.72792C21.9685 3.00317 20.0033 2.59959 17.9338 2.59959C15.9229 2.59959 14.0106 2.98059 12.2806 3.667Z" fill="#F3760D"/>
<path d="M4.21296 0L4.62675 -0.910372L3.06983 -1.61804L3.21666 0.0858529L4.21296 0ZM12.2806 3.667L11.8668 4.57737L12.2541 4.75337L12.6494 4.59651L12.2806 3.667ZM5.08536 10.124L5.98163 10.5676L6.10568 10.3169L6.08167 10.0382L5.08536 10.124ZM29.9274 21.9379L30.4941 21.114L29.666 20.5444L29.1006 21.3755L29.9274 21.9379ZM29.9343 21.9427L29.3675 22.7666L30.793 23.747L30.9311 22.0225L29.9343 21.9427ZM29.9356 21.9259L29.1081 21.3644L28.9599 21.5829L28.9388 21.8461L29.9356 21.9259ZM30.867 10.2992L29.8702 10.2193L29.8488 10.4862L29.9637 10.7281L30.867 10.2992ZM31.6873 0.0603099L32.6841 0.140166L32.8206 -1.56388L31.2684 -0.847706L31.6873 0.0603099ZM23.738 3.72792L23.359 4.65331L23.7617 4.81827L24.1569 4.63594L23.738 3.72792ZM3.79917 0.910372L11.8668 4.57737L12.6944 2.75662L4.62675 -0.910372L3.79917 0.910372ZM6.08167 10.0382L5.20927 -0.0858529L3.21666 0.0858529L4.08905 10.2099L6.08167 10.0382ZM4.1891 9.68052C3.34127 11.3938 2.86816 13.2967 2.86816 15.2998H4.86816C4.86816 13.6162 5.26493 12.0159 5.98163 10.5676L4.1891 9.68052ZM2.86816 15.2998C2.86816 22.9598 9.71177 29 17.9338 29V27C10.6193 27 4.86816 21.668 4.86816 15.2998H2.86816ZM17.9338 29C23.3228 29 28.0854 26.4233 30.7542 22.5004L29.1006 21.3755C26.8212 24.726 22.6916 27 17.9338 27V29ZM29.3607 22.7619L29.3675 22.7666L30.501 21.1187L30.4941 21.114L29.3607 22.7619ZM30.9311 22.0225L30.9324 22.0057L28.9388 21.8461L28.9374 21.8628L30.9311 22.0225ZM30.763 22.4874C32.1776 20.4029 32.9993 17.9401 32.9993 15.2998H30.9993C30.9993 17.5157 30.3117 19.5908 29.1081 21.3644L30.763 22.4874ZM32.9993 15.2998C32.9993 13.3705 32.5604 11.534 31.7704 9.87019L29.9637 10.7281C30.6312 12.1336 30.9993 13.678 30.9993 15.2998H32.9993ZM31.8638 10.379L32.6841 0.140166L30.6905 -0.0195463L29.8702 10.2193L31.8638 10.379ZM31.2684 -0.847706L23.3191 2.81991L24.1569 4.63594L32.1062 0.968326L31.2684 -0.847706ZM24.117 2.80253C22.2276 2.02867 20.1337 1.59959 17.9338 1.59959V3.59959C19.8729 3.59959 21.7094 3.97767 23.359 4.65331L24.117 2.80253ZM17.9338 1.59959C15.7962 1.59959 13.7588 2.00466 11.9118 2.73749L12.6494 4.59651C14.2624 3.95652 16.0496 3.59959 17.9338 3.59959V1.59959Z" fill="black" mask="url(#path-1-inside-1_312_207)"/>
<path d="M11.6797 17H10.2598C10.1048 17 9.96419 16.9714 9.83789 16.9141C9.71159 16.8568 9.60352 16.7786 9.51367 16.6797C9.42383 16.5794 9.35417 16.4622 9.30469 16.3281C9.25651 16.1927 9.23242 16.0475 9.23242 15.8926C9.23242 15.7389 9.25651 15.5957 9.30469 15.4629C9.35417 15.3288 9.42383 15.2122 9.51367 15.1133C9.60352 15.0143 9.71159 14.9362 9.83789 14.8789C9.96419 14.8216 10.1048 14.793 10.2598 14.793H11.6797V15.1953H10.2598C10.1634 15.1953 10.0762 15.2135 9.99805 15.25C9.92122 15.2865 9.85612 15.3359 9.80273 15.3984C9.74935 15.4609 9.70833 15.5345 9.67969 15.6191C9.65104 15.7038 9.63672 15.7949 9.63672 15.8926C9.63672 15.9915 9.65104 16.084 9.67969 16.1699C9.70833 16.2546 9.74935 16.3288 9.80273 16.3926C9.85612 16.4551 9.92122 16.5046 9.99805 16.541C10.0762 16.5775 10.1634 16.5957 10.2598 16.5957H11.6797V17ZM14.6426 17H14.2422V16.3965H12.7012V15.9883H14.2422V15.1953H13.2012C13.1035 15.1953 13.0117 15.2142 12.9258 15.252C12.8398 15.2884 12.765 15.3385 12.7012 15.4023C12.6374 15.4661 12.5866 15.541 12.5488 15.627C12.5124 15.7116 12.4941 15.8027 12.4941 15.9004V17H12.0898V15.9004C12.0898 15.7467 12.1191 15.6029 12.1777 15.4688C12.2363 15.3346 12.3158 15.2174 12.416 15.1172C12.5163 15.0169 12.6341 14.9382 12.7695 14.8809C12.9049 14.8223 13.0488 14.793 13.2012 14.793H14.6426V17ZM16.4355 17H16.0352V15.1953H14.9766V14.8008H17.4922V15.1953H16.4355V17ZM19.041 17H18.6406V15.1953H17.582V14.8008H20.0977V15.1953H19.041V17ZM22.7266 17H20.4297V14.793H22.7266V15.1953H20.834V16.5957H22.7266V17ZM22.4707 16.0879H21.0234V15.6836H22.4707V16.0879ZM25.7617 17H25.2168L24.5918 16.4043H23.7812V16.0078H24.8887C24.9447 16.0078 24.9974 15.9967 25.0469 15.9746C25.0964 15.9525 25.1393 15.9232 25.1758 15.8867C25.2122 15.849 25.2409 15.8053 25.2617 15.7559C25.2826 15.7064 25.293 15.6543 25.293 15.5996C25.293 15.5436 25.2826 15.4915 25.2617 15.4434C25.2409 15.3939 25.2122 15.3509 25.1758 15.3145C25.1393 15.278 25.0964 15.2493 25.0469 15.2285C24.9974 15.2064 24.9447 15.1953 24.8887 15.1953H23.5723V17H23.1719V14.8008H24.8887C24.9993 14.8008 25.1035 14.8223 25.2012 14.8652C25.2988 14.9069 25.3835 14.9642 25.4551 15.0371C25.528 15.1087 25.5853 15.1934 25.627 15.291C25.6686 15.3874 25.6895 15.4902 25.6895 15.5996C25.6895 15.6895 25.6751 15.776 25.6465 15.8594C25.6178 15.9414 25.5775 16.0169 25.5254 16.0859C25.4746 16.1536 25.4141 16.2122 25.3438 16.2617C25.2734 16.3112 25.1966 16.3477 25.1133 16.3711L25.7617 17ZM28.6055 16.3516C28.6055 16.4414 28.584 16.526 28.541 16.6055C28.4993 16.6836 28.4421 16.752 28.3691 16.8105C28.2975 16.8691 28.2129 16.9154 28.1152 16.9492C28.0176 16.9831 27.9141 17 27.8047 17H26.084V16.5996H27.8047C27.8594 16.5996 27.9108 16.5938 27.959 16.582C28.0085 16.569 28.0514 16.5514 28.0879 16.5293C28.1243 16.5059 28.153 16.4792 28.1738 16.4492C28.1947 16.4193 28.2051 16.3867 28.2051 16.3516V16.252H26.8809C26.7715 16.252 26.668 16.2311 26.5703 16.1895C26.474 16.1465 26.3893 16.0892 26.3164 16.0176C26.2448 15.9447 26.1882 15.86 26.1465 15.7637C26.1048 15.666 26.084 15.5618 26.084 15.4512V14.8008H26.4805V15.4512C26.4805 15.5072 26.4909 15.5599 26.5117 15.6094C26.5326 15.6576 26.5612 15.6999 26.5977 15.7363C26.6341 15.7715 26.6764 15.7995 26.7246 15.8203C26.7741 15.8411 26.8262 15.8516 26.8809 15.8516H28.2051V14.8008H28.6055V16.3516Z" fill="black"/>
<path d="M3.42773 11.1992C3.42773 11.3112 3.4069 11.416 3.36523 11.5137C3.32357 11.61 3.26628 11.6947 3.19336 11.7676C3.12174 11.8392 3.03711 11.8958 2.93945 11.9375C2.8431 11.9792 2.73958 12 2.62891 12H0.195312V11.5996H2.62891C2.6849 11.5996 2.73698 11.5892 2.78516 11.5684C2.83333 11.5475 2.875 11.5189 2.91016 11.4824C2.94661 11.446 2.97526 11.4036 2.99609 11.3555C3.01693 11.306 3.02734 11.2539 3.02734 11.1992C3.02734 11.1445 3.01693 11.0931 2.99609 11.0449C2.97526 10.9967 2.94661 10.9544 2.91016 10.918C2.875 10.8815 2.83333 10.8529 2.78516 10.832C2.73698 10.8112 2.6849 10.8008 2.62891 10.8008H0.996094C0.886719 10.8008 0.783203 10.7799 0.685547 10.7383C0.587891 10.6966 0.502604 10.64 0.429688 10.5684C0.358073 10.4954 0.300781 10.4102 0.257812 10.3125C0.216146 10.2148 0.195312 10.1107 0.195312 10C0.195312 9.89062 0.216146 9.78711 0.257812 9.68945C0.300781 9.5918 0.358073 9.50716 0.429688 9.43555C0.502604 9.36263 0.587891 9.30534 0.685547 9.26367C0.783203 9.2207 0.886719 9.19922 0.996094 9.19922H3.22852V9.59961H0.996094C0.941406 9.59961 0.889323 9.61003 0.839844 9.63086C0.791667 9.65169 0.749349 9.68034 0.712891 9.7168C0.676432 9.75326 0.647786 9.79622 0.626953 9.8457C0.60612 9.89388 0.595703 9.94531 0.595703 10C0.595703 10.0547 0.60612 10.1068 0.626953 10.1562C0.647786 10.2044 0.676432 10.2467 0.712891 10.2832C0.749349 10.3197 0.791667 10.3483 0.839844 10.3691C0.889323 10.39 0.941406 10.4004 0.996094 10.4004H2.62891C2.73958 10.4004 2.8431 10.4219 2.93945 10.4648C3.03711 10.5065 3.12174 10.5638 3.19336 10.6367C3.26628 10.7083 3.32357 10.793 3.36523 10.8906C3.4069 10.987 3.42773 11.0898 3.42773 11.1992ZM6.22656 9.80078V10.9004C6.22656 11.0527 6.19792 11.196 6.14062 11.3301C6.08333 11.4629 6.00456 11.5794 5.9043 11.6797C5.80534 11.7786 5.68945 11.8568 5.55664 11.9141C5.42383 11.9714 5.2819 12 5.13086 12H4.91016C4.75911 12 4.61719 11.9714 4.48438 11.9141C4.35156 11.8555 4.23503 11.7767 4.13477 11.6777C4.03581 11.5775 3.95768 11.4609 3.90039 11.3281C3.8431 11.194 3.81445 11.0514 3.81445 10.9004V9.80078H4.21484V10.9004C4.21484 10.9967 4.23307 11.0879 4.26953 11.1738C4.30599 11.2585 4.35547 11.3327 4.41797 11.3965C4.48177 11.459 4.55534 11.5085 4.63867 11.5449C4.72331 11.5814 4.8138 11.5996 4.91016 11.5996H5.13086C5.22721 11.5996 5.31771 11.5814 5.40234 11.5449C5.48698 11.5085 5.56055 11.459 5.62305 11.3965C5.68555 11.3327 5.73503 11.2585 5.77148 11.1738C5.80794 11.0879 5.82617 10.9967 5.82617 10.9004V9.80078H6.22656ZM8.78906 12C8.78906 11.8542 8.76432 11.7129 8.71484 11.5762C8.66667 11.4382 8.60091 11.3086 8.51758 11.1875C8.43555 11.0651 8.33984 10.9512 8.23047 10.8457C8.1224 10.7402 8.00846 10.6465 7.88867 10.5645C7.76888 10.4811 7.64648 10.4115 7.52148 10.3555C7.39779 10.2982 7.27995 10.2559 7.16797 10.2285V12H6.76758V9.80078H6.98438V9.80469C7.1276 9.8125 7.27995 9.8444 7.44141 9.90039C7.60417 9.95508 7.76562 10.0299 7.92578 10.125C8.08724 10.2188 8.24219 10.3307 8.39062 10.4609C8.54036 10.5898 8.67318 10.7324 8.78906 10.8887V9.80078H9.1875V12H8.78906ZM12.2402 9.80078L11.1172 12H10.6602L9.5293 9.80078H9.98438L10.8887 11.5566L11.7891 9.80078H12.2402ZM14.957 9.80078V10.9004C14.957 11.0527 14.9284 11.196 14.8711 11.3301C14.8138 11.4629 14.735 11.5794 14.6348 11.6797C14.5358 11.7786 14.4199 11.8568 14.2871 11.9141C14.1543 11.9714 14.0124 12 13.8613 12H13.6406C13.4896 12 13.3477 11.9714 13.2148 11.9141C13.082 11.8555 12.9655 11.7767 12.8652 11.6777C12.7663 11.5775 12.6882 11.4609 12.6309 11.3281C12.5736 11.194 12.5449 11.0514 12.5449 10.9004V9.80078H12.9453V10.9004C12.9453 10.9967 12.9635 11.0879 13 11.1738C13.0365 11.2585 13.0859 11.3327 13.1484 11.3965C13.2122 11.459 13.2858 11.5085 13.3691 11.5449C13.4538 11.5814 13.5443 11.5996 13.6406 11.5996H13.8613C13.9577 11.5996 14.0482 11.5814 14.1328 11.5449C14.2174 11.5085 14.291 11.459 14.3535 11.3965C14.416 11.3327 14.4655 11.2585 14.502 11.1738C14.5384 11.0879 14.5566 10.9967 14.5566 10.9004V9.80078H14.957ZM17.7949 12H15.498V9.79297H17.7949V10.1953H15.9023V11.5957H17.7949V12ZM17.5391 11.0879H16.0918V10.6836H17.5391V11.0879ZM20.3457 12H18.2402V9.80078H18.6406V11.5996H20.3457V12ZM22.791 12H20.6855V9.80078H21.0859V11.5996H22.791V12ZM25.4277 12H23.1309V9.79297H25.4277V10.1953H23.5352V11.5957H25.4277V12ZM25.1719 11.0879H23.7246V10.6836H25.1719V11.0879Z" fill="black"/>
</svg>
