<svg width="80" height="76" viewBox="0 0 80 76" fill="none" xmlns="http://www.w3.org/2000/svg">
<path d="M40.0002 32.9998C27.5925 32.9998 10.0002 54.0273 10.0002 66.9998C10.0002 72.8423 13.9799 75.9998 21.0002 75.9998C28.6313 75.9998 33.8799 71.9998 40.0002 71.9998C46.1735 71.9998 51.4362 75.9998 59.0002 75.9998C66.0204 75.9998 70.0002 72.8423 70.0002 66.9998C70.0002 54.0273 52.4078 32.9998 40.0002 32.9998ZM17.0002 30.9998C15.3752 25.1991 10.5501 21.8346 6.00016 22.9998C1.4502 24.1649 -0.624827 29.1991 1.00016 34.9998C2.62514 40.8005 7.4502 45.1649 12.0002 43.9998C16.5501 42.8346 18.6251 36.8005 17.0002 30.9998ZM30.0002 27.9998C34.8345 26.6371 37.8501 19.2686 36.0002 11.9998C34.1502 4.73092 28.8345 -0.362923 24.0002 0.999779C19.1658 2.36248 16.1502 9.73092 18.0002 16.9998C19.8501 24.2686 25.1674 29.3642 30.0002 27.9998ZM74.0002 22.9998C69.4502 21.8346 64.6267 25.1991 63.0002 30.9998C61.3752 36.8005 63.4502 42.8346 68.0002 43.9998C72.5501 45.1649 77.3736 40.8005 79.0002 34.9998C80.6251 29.1991 78.5501 24.1649 74.0002 22.9998ZM50.0002 27.9998C54.8345 29.3625 60.1502 24.2686 62.0002 16.9998C63.8501 9.73092 60.8345 2.36415 56.0002 0.999779C51.1658 -0.364597 45.8501 4.73092 44.0002 11.9998C42.1502 19.2686 45.1658 26.6371 50.0002 27.9998Z" fill="#F3760D"/>
</svg>
