<svg width="25" height="26" viewBox="0 0 25 26" fill="none" xmlns="http://www.w3.org/2000/svg">
<g clip-path="url(#clip0_191_72)">
<path d="M18.2601 15.222C18.2601 16.272 18.5588 16.6908 19.3401 16.6908C21.0813 16.6908 22.1901 14.472 22.1901 10.782C22.1901 5.142 18.0801 2.442 12.9488 2.442C7.67006 2.442 2.86881 5.982 2.86881 12.672C2.86881 19.062 7.06881 22.542 13.5188 22.542C15.7088 22.542 17.1788 22.302 19.4276 21.552L19.9101 23.5608C17.6901 24.282 15.3176 24.4908 13.4888 24.4908C5.02881 24.4908 0.497559 19.8408 0.497559 12.6708C0.497559 5.44075 5.74881 0.520752 12.9788 0.520752C20.5088 0.520752 24.4976 5.02075 24.4976 10.5408C24.4976 15.2208 23.0288 18.7908 18.4088 18.7908C16.3076 18.7908 14.9288 17.9508 14.7488 16.0895C14.2088 18.1595 12.7688 18.7908 10.8176 18.7908C8.20756 18.7908 6.01756 16.7795 6.01756 12.7308C6.01756 8.65075 7.93881 6.13075 11.3888 6.13075C13.2188 6.13075 14.3588 6.85075 14.8663 7.99075L15.7376 6.40075H18.2576V15.222H18.2601V15.222ZM14.5713 11.262C14.5713 9.61325 13.3401 8.922 12.3201 8.922C11.2101 8.922 9.98131 9.82075 9.98131 12.462C9.98131 14.562 10.9113 15.732 12.3201 15.732C13.3101 15.732 14.5713 15.102 14.5713 13.362V11.262Z" fill="#F3760D"/>
</g>
<defs>
<clipPath id="clip0_191_72">
<rect width="25" height="25" fill="white" transform="translate(0 0.00708008)"/>
</clipPath>
</defs>
</svg>
