<svg width="301" height="300" viewBox="0 0 301 300" fill="none" xmlns="http://www.w3.org/2000/svg">
<path d="M179.321 43.7626L82.1582 143.438C80.4517 145.188 79.4966 147.536 79.4966 149.981C79.4966 152.426 80.4517 154.774 82.1582 156.525L179.321 256.238C180.116 257.054 181.066 257.703 182.116 258.146C183.166 258.589 184.294 258.817 185.433 258.817C186.573 258.817 187.701 258.589 188.75 258.146C189.8 257.703 190.751 257.054 191.546 256.238C193.181 254.563 194.097 252.316 194.097 249.975C194.097 247.635 193.181 245.387 191.546 243.713L100.177 149.981L191.546 56.2688C193.175 54.5953 194.087 52.3517 194.087 50.0157C194.087 47.6797 193.175 45.436 191.546 43.7626C190.751 42.9461 189.8 42.2972 188.75 41.8541C187.701 41.411 186.573 41.1827 185.433 41.1827C184.294 41.1827 183.166 41.411 182.116 41.8541C181.066 42.2972 180.116 42.9461 179.321 43.7626V43.7626Z" fill="#F3760D"/>
</svg>
