<svg width="300" height="300" viewBox="0 0 300 300" fill="none" xmlns="http://www.w3.org/2000/svg">
<path d="M99.8625 43.7438C98.2271 45.4181 97.3115 47.6658 97.3115 50.0063C97.3115 52.3468 98.2271 54.5945 99.8625 56.2688L191.231 150L99.8625 243.713C98.2271 245.387 97.3115 247.635 97.3115 249.975C97.3115 252.316 98.2271 254.563 99.8625 256.238C100.657 257.054 101.608 257.703 102.658 258.146C103.708 258.589 104.836 258.817 105.975 258.817C107.115 258.817 108.242 258.589 109.292 258.146C110.342 257.703 111.293 257.054 112.088 256.238L209.25 156.544C210.957 154.793 211.912 152.445 211.912 150C211.912 147.555 210.957 145.207 209.25 143.456L112.088 43.7626C111.293 42.9461 110.342 42.2972 109.292 41.8541C108.242 41.411 107.115 41.1827 105.975 41.1827C104.836 41.1827 103.708 41.411 102.658 41.8541C101.608 42.2972 100.657 42.9461 99.8625 43.7626V43.7438Z" fill="#F3760D"/>
</svg>
