<svg width="25" height="26" viewBox="0 0 25 26" fill="none" xmlns="http://www.w3.org/2000/svg">
<path d="M21.0938 1.56958H3.90625C3.28465 1.56958 2.68851 1.81651 2.24897 2.25605C1.80943 2.69559 1.5625 3.29173 1.5625 3.91333L1.5625 21.1008C1.5625 21.7224 1.80943 22.3186 2.24897 22.7581C2.68851 23.1977 3.28465 23.4446 3.90625 23.4446H10.6079V16.0076H7.53174V12.5071H10.6079V9.83911C10.6079 6.80444 12.4146 5.12817 15.1816 5.12817C16.5068 5.12817 17.8926 5.3645 17.8926 5.3645V8.34302H16.3657C14.8613 8.34302 14.3921 9.27661 14.3921 10.2341V12.5071H17.7505L17.2134 16.0076H14.3921V23.4446H21.0938C21.7154 23.4446 22.3115 23.1977 22.751 22.7581C23.1906 22.3186 23.4375 21.7224 23.4375 21.1008V3.91333C23.4375 3.29173 23.1906 2.69559 22.751 2.25605C22.3115 1.81651 21.7154 1.56958 21.0938 1.56958V1.56958Z" fill="#F3760D"/>
</svg>
