<svg width="25" height="26" viewBox="0 0 25 26" fill="none" xmlns="http://www.w3.org/2000/svg">
<g clip-path="url(#clip0_191_53)">
<path d="M12.5269 0.397705C5.68945 0.397705 0.390625 5.39478 0.390625 12.1443C0.390625 15.6746 1.84131 18.7253 4.20264 20.8328C4.61035 21.1995 4.52637 21.4119 4.5957 23.676C4.60116 23.8346 4.64534 23.9895 4.72439 24.1271C4.80344 24.2647 4.91495 24.3808 5.0492 24.4654C5.18346 24.55 5.33637 24.6005 5.49461 24.6125C5.65285 24.6244 5.8116 24.5974 5.95703 24.5339C8.54053 23.3962 8.57373 23.3064 9.01172 23.4255C16.4966 25.4856 24.6094 20.6956 24.6094 12.1443C24.6094 5.39478 19.3647 0.397705 12.5269 0.397705ZM19.814 9.43726L16.2495 15.0803C16.1149 15.2925 15.9379 15.4746 15.7297 15.6152C15.5214 15.7558 15.2863 15.8519 15.0392 15.8974C14.7921 15.943 14.5382 15.9369 14.2935 15.8798C14.0488 15.8226 13.8186 15.7155 13.6172 15.5652L10.7813 13.4426C10.6545 13.3475 10.5003 13.2961 10.3418 13.2961C10.1833 13.2961 10.0291 13.3475 9.90234 13.4426L6.07568 16.345C5.56494 16.7322 4.896 16.1204 5.24023 15.5798L8.80469 9.93677C8.93924 9.72451 9.1162 9.54235 9.32446 9.4017C9.53273 9.26106 9.7678 9.16496 10.015 9.11943C10.2621 9.07391 10.516 9.07994 10.7607 9.13715C11.0054 9.19437 11.2357 9.30152 11.437 9.4519L14.272 11.574C14.3988 11.6691 14.553 11.7205 14.7114 11.7205C14.8699 11.7205 15.0241 11.6691 15.1509 11.574L18.9795 8.67456C19.4893 8.28491 20.1582 8.89624 19.814 9.43726V9.43726Z" fill="#F3760D"/>
</g>
<defs>
<clipPath id="clip0_191_53">
<rect width="25" height="25" fill="white" transform="translate(0 0.00708008)"/>
</clipPath>
</defs>
</svg>
