<svg width="25" height="26" viewBox="0 0 25 26" fill="none" xmlns="http://www.w3.org/2000/svg">
<path d="M12.5046 6.89185C9.39917 6.89185 6.89429 9.39673 6.89429 12.5022C6.89429 15.6077 9.39917 18.1125 12.5046 18.1125C15.6101 18.1125 18.115 15.6077 18.115 12.5022C18.115 9.39673 15.6101 6.89185 12.5046 6.89185ZM12.5046 16.1497C10.4978 16.1497 8.85718 14.5139 8.85718 12.5022C8.85718 10.4905 10.4929 8.85474 12.5046 8.85474C14.5164 8.85474 16.1521 10.4905 16.1521 12.5022C16.1521 14.5139 14.5115 16.1497 12.5046 16.1497V16.1497ZM19.6531 6.66235C19.6531 7.38989 19.0671 7.97095 18.3445 7.97095C17.6169 7.97095 17.0359 7.38501 17.0359 6.66235C17.0359 5.9397 17.6218 5.35376 18.3445 5.35376C19.0671 5.35376 19.6531 5.9397 19.6531 6.66235ZM23.3689 7.99048C23.2859 6.23755 22.8855 4.68481 21.6013 3.40552C20.322 2.12622 18.7693 1.72583 17.0164 1.63794C15.2097 1.5354 9.79468 1.5354 7.98804 1.63794C6.23999 1.72095 4.68726 2.12134 3.40308 3.40063C2.1189 4.67993 1.72339 6.23267 1.6355 7.9856C1.53296 9.79224 1.53296 15.2073 1.6355 17.0139C1.71851 18.7668 2.1189 20.3196 3.40308 21.5989C4.68726 22.8782 6.23511 23.2786 7.98804 23.3665C9.79468 23.469 15.2097 23.469 17.0164 23.3665C18.7693 23.2834 20.322 22.8831 21.6013 21.5989C22.8806 20.3196 23.281 18.7668 23.3689 17.0139C23.4714 15.2073 23.4714 9.79712 23.3689 7.99048V7.99048ZM21.0349 18.9524C20.6541 19.9094 19.9167 20.6467 18.9548 21.0325C17.5144 21.6038 14.0964 21.4719 12.5046 21.4719C10.9128 21.4719 7.48999 21.5989 6.05444 21.0325C5.09741 20.6516 4.36011 19.9143 3.97437 18.9524C3.40308 17.512 3.53491 14.094 3.53491 12.5022C3.53491 10.9104 3.40796 7.48755 3.97437 6.052C4.35522 5.09497 5.09253 4.35767 6.05444 3.97192C7.49487 3.40063 10.9128 3.53247 12.5046 3.53247C14.0964 3.53247 17.5193 3.40552 18.9548 3.97192C19.9119 4.35278 20.6492 5.09009 21.0349 6.052C21.6062 7.49243 21.4744 10.9104 21.4744 12.5022C21.4744 14.094 21.6062 17.5168 21.0349 18.9524Z" fill="#F3760D"/>
</svg>
