<svg width="94" height="81" viewBox="0 0 94 81" fill="none" xmlns="http://www.w3.org/2000/svg">
<path fill-rule="evenodd" clip-rule="evenodd" d="M87.6681 0.00390625L85.2805 29.0557C87.4442 33.5587 88.6471 38.5475 88.6471 43.7972C88.6471 63.7938 71.1941 80.0043 49.6646 80.0043C28.1352 80.0043 10.6821 63.7938 10.6821 43.7972C10.6821 38.6742 11.8277 33.7998 13.8938 29.3827L11.3244 0.171361L33.7316 10.7427C38.5959 8.71686 43.9886 7.59012 49.6646 7.59012C55.268 7.59012 60.5952 8.68819 65.4105 10.6653L87.6681 0.00390625Z" fill="#F3760D"/>
<path d="M37.7197 52.6216H33.46C32.9951 52.6216 32.5732 52.5356 32.1943 52.3638C31.8154 52.1919 31.4912 51.9575 31.2217 51.6606C30.9521 51.3599 30.7432 51.0083 30.5947 50.606C30.4502 50.1997 30.3779 49.7642 30.3779 49.2993C30.3779 48.8384 30.4502 48.4087 30.5947 48.0103C30.7432 47.6079 30.9521 47.2583 31.2217 46.9614C31.4912 46.6646 31.8154 46.4302 32.1943 46.2583C32.5732 46.0864 32.9951 46.0005 33.46 46.0005H37.7197V47.2075H33.46C33.1709 47.2075 32.9092 47.2622 32.6748 47.3716C32.4443 47.481 32.249 47.6294 32.0889 47.8169C31.9287 48.0044 31.8057 48.2251 31.7197 48.479C31.6338 48.7329 31.5908 49.0063 31.5908 49.2993C31.5908 49.5962 31.6338 49.8735 31.7197 50.1313C31.8057 50.3853 31.9287 50.6079 32.0889 50.7993C32.249 50.9868 32.4443 51.1353 32.6748 51.2446C32.9092 51.354 33.1709 51.4087 33.46 51.4087H37.7197V52.6216ZM46.6084 52.6216H45.4072V50.811H40.7842V49.5864H45.4072V47.2075H42.2842C41.9912 47.2075 41.7158 47.2642 41.458 47.3774C41.2002 47.4868 40.9756 47.6372 40.7842 47.8286C40.5928 48.02 40.4404 48.2446 40.3271 48.5024C40.2178 48.7563 40.1631 49.0298 40.1631 49.3228V52.6216H38.9502V49.3228C38.9502 48.8618 39.0381 48.4302 39.2139 48.0278C39.3896 47.6255 39.6279 47.2739 39.9287 46.9731C40.2295 46.6724 40.583 46.436 40.9893 46.2642C41.3955 46.0884 41.8271 46.0005 42.2842 46.0005H46.6084V52.6216ZM51.9873 52.6216H50.7861V47.2075H47.6104V46.0239H55.1572V47.2075H51.9873V52.6216ZM59.8037 52.6216H58.6025V47.2075H55.4268V46.0239H62.9736V47.2075H59.8037V52.6216ZM70.8604 52.6216H63.9697V46.0005H70.8604V47.2075H65.1826V51.4087H70.8604V52.6216ZM70.0928 49.8853H65.751V48.6724H70.0928V49.8853ZM79.9658 52.6216H78.3311L76.4561 50.8345H74.0244V49.645H77.3467C77.5146 49.645 77.6729 49.6118 77.8213 49.5454C77.9697 49.479 78.0986 49.3911 78.208 49.2817C78.3174 49.1685 78.4033 49.0376 78.4658 48.8892C78.5283 48.7407 78.5596 48.5845 78.5596 48.4204C78.5596 48.2524 78.5283 48.0962 78.4658 47.9517C78.4033 47.8032 78.3174 47.6743 78.208 47.5649C78.0986 47.4556 77.9697 47.3696 77.8213 47.3071C77.6729 47.2407 77.5146 47.2075 77.3467 47.2075H73.3975V52.6216H72.1963V46.0239H77.3467C77.6787 46.0239 77.9912 46.0884 78.2842 46.2173C78.5771 46.3423 78.8311 46.5142 79.0459 46.7329C79.2646 46.9478 79.4365 47.2017 79.5615 47.4946C79.6865 47.7837 79.749 48.0923 79.749 48.4204C79.749 48.6899 79.7061 48.9497 79.6201 49.1997C79.5342 49.4458 79.4131 49.6724 79.2568 49.8794C79.1045 50.0825 78.9229 50.2583 78.7119 50.4067C78.501 50.5552 78.2705 50.6646 78.0205 50.7349L79.9658 52.6216ZM88.4971 50.6763C88.4971 50.9458 88.4326 51.1997 88.3037 51.438C88.1787 51.6724 88.0068 51.8774 87.7881 52.0532C87.5732 52.229 87.3193 52.3677 87.0264 52.4692C86.7334 52.5708 86.4229 52.6216 86.0947 52.6216H80.9326V51.4204H86.0947C86.2588 51.4204 86.4131 51.4028 86.5576 51.3677C86.7061 51.3286 86.835 51.2759 86.9443 51.2095C87.0537 51.1392 87.1396 51.0591 87.2021 50.9692C87.2646 50.8794 87.2959 50.7817 87.2959 50.6763V50.3774H83.3232C82.9951 50.3774 82.6846 50.3149 82.3916 50.1899C82.1025 50.061 81.8486 49.8892 81.6299 49.6743C81.415 49.4556 81.2451 49.2017 81.1201 48.9126C80.9951 48.6196 80.9326 48.3071 80.9326 47.9751V46.0239H82.1221V47.9751C82.1221 48.1431 82.1533 48.3013 82.2158 48.4497C82.2783 48.5942 82.3643 48.7212 82.4736 48.8306C82.583 48.936 82.71 49.02 82.8545 49.0825C83.0029 49.145 83.1592 49.1763 83.3232 49.1763H87.2959V46.0239H88.4971V50.6763Z" fill="white"/>
<path d="M10.2832 36.4692C10.2832 36.8052 10.2207 37.1196 10.0957 37.4126C9.9707 37.7017 9.79883 37.9556 9.58008 38.1743C9.36523 38.3892 9.11133 38.5591 8.81836 38.6841C8.5293 38.8091 8.21875 38.8716 7.88672 38.8716H0.585938V37.6704H7.88672C8.05469 37.6704 8.21094 37.6392 8.35547 37.5767C8.5 37.5142 8.625 37.4282 8.73047 37.3188C8.83984 37.2095 8.92578 37.0825 8.98828 36.938C9.05078 36.7896 9.08203 36.6333 9.08203 36.4692C9.08203 36.3052 9.05078 36.1509 8.98828 36.0063C8.92578 35.8618 8.83984 35.7349 8.73047 35.6255C8.625 35.5161 8.5 35.4302 8.35547 35.3677C8.21094 35.3052 8.05469 35.2739 7.88672 35.2739H2.98828C2.66016 35.2739 2.34961 35.2114 2.05664 35.0864C1.76367 34.9614 1.50781 34.7915 1.28906 34.5767C1.07422 34.3579 0.902344 34.1021 0.773438 33.8091C0.648438 33.5161 0.585938 33.2036 0.585938 32.8716C0.585938 32.5435 0.648438 32.2329 0.773438 31.9399C0.902344 31.647 1.07422 31.3931 1.28906 31.1782C1.50781 30.9595 1.76367 30.7876 2.05664 30.6626C2.34961 30.5337 2.66016 30.4692 2.98828 30.4692H9.68555V31.6704H2.98828C2.82422 31.6704 2.66797 31.7017 2.51953 31.7642C2.375 31.8267 2.24805 31.9126 2.13867 32.022C2.0293 32.1313 1.94336 32.2603 1.88086 32.4087C1.81836 32.5532 1.78711 32.7075 1.78711 32.8716C1.78711 33.0356 1.81836 33.1919 1.88086 33.3403C1.94336 33.4849 2.0293 33.6118 2.13867 33.7212C2.24805 33.8306 2.375 33.9165 2.51953 33.979C2.66797 34.0415 2.82422 34.0728 2.98828 34.0728H7.88672C8.21875 34.0728 8.5293 34.1372 8.81836 34.2661C9.11133 34.3911 9.36523 34.563 9.58008 34.7817C9.79883 34.9966 9.9707 35.2505 10.0957 35.5435C10.2207 35.8325 10.2832 36.1411 10.2832 36.4692ZM18.6797 32.2739V35.5728C18.6797 36.0298 18.5938 36.4595 18.4219 36.8618C18.25 37.2603 18.0137 37.6099 17.7129 37.9106C17.416 38.2075 17.0684 38.4419 16.6699 38.6138C16.2715 38.7856 15.8457 38.8716 15.3926 38.8716H14.7305C14.2773 38.8716 13.8516 38.7856 13.4531 38.6138C13.0547 38.438 12.7051 38.2017 12.4043 37.9048C12.1074 37.604 11.873 37.2544 11.7012 36.856C11.5293 36.4536 11.4434 36.0259 11.4434 35.5728V32.2739H12.6445V35.5728C12.6445 35.8618 12.6992 36.1353 12.8086 36.3931C12.918 36.647 13.0664 36.8696 13.2539 37.061C13.4453 37.2485 13.666 37.397 13.916 37.5063C14.1699 37.6157 14.4414 37.6704 14.7305 37.6704H15.3926C15.6816 37.6704 15.9531 37.6157 16.207 37.5063C16.4609 37.397 16.6816 37.2485 16.8691 37.061C17.0566 36.8696 17.2051 36.647 17.3145 36.3931C17.4238 36.1353 17.4785 35.8618 17.4785 35.5728V32.2739H18.6797ZM26.3672 38.8716C26.3672 38.4341 26.293 38.0103 26.1445 37.6001C26 37.186 25.8027 36.7974 25.5527 36.4341C25.3066 36.0669 25.0195 35.7251 24.6914 35.4087C24.3672 35.0923 24.0254 34.811 23.666 34.5649C23.3066 34.3149 22.9395 34.106 22.5645 33.938C22.1934 33.7661 21.8398 33.6392 21.5039 33.5571V38.8716H20.3027V32.2739H20.9531V32.2856C21.3828 32.3091 21.8398 32.4048 22.3242 32.5728C22.8125 32.7368 23.2969 32.9614 23.7773 33.2466C24.2617 33.5278 24.7266 33.8638 25.1719 34.2544C25.6211 34.6411 26.0195 35.0688 26.3672 35.5376V32.2739H27.5625V38.8716H26.3672ZM36.7207 32.2739L33.3516 38.8716H31.9805L28.5879 32.2739H29.9531L32.666 37.5415L35.3672 32.2739H36.7207ZM44.8711 32.2739V35.5728C44.8711 36.0298 44.7852 36.4595 44.6133 36.8618C44.4414 37.2603 44.2051 37.6099 43.9043 37.9106C43.6074 38.2075 43.2598 38.4419 42.8613 38.6138C42.4629 38.7856 42.0371 38.8716 41.584 38.8716H40.9219C40.4688 38.8716 40.043 38.7856 39.6445 38.6138C39.2461 38.438 38.8965 38.2017 38.5957 37.9048C38.2988 37.604 38.0645 37.2544 37.8926 36.856C37.7207 36.4536 37.6348 36.0259 37.6348 35.5728V32.2739H38.8359V35.5728C38.8359 35.8618 38.8906 36.1353 39 36.3931C39.1094 36.647 39.2578 36.8696 39.4453 37.061C39.6367 37.2485 39.8574 37.397 40.1074 37.5063C40.3613 37.6157 40.6328 37.6704 40.9219 37.6704H41.584C41.873 37.6704 42.1445 37.6157 42.3984 37.5063C42.6523 37.397 42.873 37.2485 43.0605 37.061C43.248 36.8696 43.3965 36.647 43.5059 36.3931C43.6152 36.1353 43.6699 35.8618 43.6699 35.5728V32.2739H44.8711ZM53.3848 38.8716H46.4941V32.2505H53.3848V33.4575H47.707V37.6587H53.3848V38.8716ZM52.6172 36.1353H48.2754V34.9224H52.6172V36.1353ZM61.0371 38.8716H54.7207V32.2739H55.9219V37.6704H61.0371V38.8716ZM68.373 38.8716H62.0566V32.2739H63.2578V37.6704H68.373V38.8716ZM76.2832 38.8716H69.3926V32.2505H76.2832V33.4575H70.6055V37.6587H76.2832V38.8716ZM75.5156 36.1353H71.1738V34.9224H75.5156V36.1353Z" fill="white"/>
</svg>
