<svg width="40" height="34" viewBox="0 0 40 34" fill="none" xmlns="http://www.w3.org/2000/svg">
<path fill-rule="evenodd" clip-rule="evenodd" d="M37.3055 0L36.2895 12.347C37.2102 14.2607 37.722 16.3808 37.722 18.6118C37.722 27.1104 30.2951 33.9998 21.1337 33.9998C11.9722 33.9998 4.54541 27.1104 4.54541 18.6118C4.54541 16.4345 5.03288 14.3629 5.9121 12.4856L4.81876 0.0710588L14.3536 4.56376C16.4235 3.70277 18.7183 3.22389 21.1337 3.22389C23.5182 3.22389 25.7853 3.69062 27.8344 4.53097L37.3055 0Z" fill="#F3760D"/>
<path d="M16.047 22.6875H14.2366C14.0391 22.6875 13.8598 22.651 13.6987 22.5779C13.5377 22.5049 13.3999 22.4053 13.2853 22.2791C13.1708 22.1513 13.082 22.0019 13.0189 21.8309C12.9575 21.6582 12.9268 21.4731 12.9268 21.2755C12.9268 21.0796 12.9575 20.897 13.0189 20.7277C13.082 20.5567 13.1708 20.4081 13.2853 20.2819C13.3999 20.1558 13.5377 20.0562 13.6987 19.9831C13.8598 19.9101 14.0391 19.8735 14.2366 19.8735H16.047V20.3865H14.2366C14.1138 20.3865 14.0025 20.4098 13.9029 20.4563C13.805 20.5027 13.722 20.5658 13.6539 20.6455C13.5858 20.7252 13.5335 20.819 13.497 20.9269C13.4605 21.0348 13.4422 21.151 13.4422 21.2755C13.4422 21.4017 13.4605 21.5196 13.497 21.6292C13.5335 21.7371 13.5858 21.8317 13.6539 21.913C13.722 21.9927 13.805 22.0558 13.9029 22.1023C14.0025 22.1488 14.1138 22.172 14.2366 22.172H16.047V22.6875ZM19.8247 22.6875H19.3142V21.918H17.3494V21.3976H19.3142V20.3865H17.9869C17.8624 20.3865 17.7453 20.4106 17.6358 20.4588C17.5262 20.5052 17.4307 20.5692 17.3494 20.6505C17.268 20.7318 17.2033 20.8273 17.1552 20.9369C17.1087 21.0448 17.0854 21.161 17.0854 21.2855V22.6875H16.57V21.2855C16.57 21.0896 16.6073 20.9062 16.682 20.7352C16.7567 20.5642 16.858 20.4148 16.9858 20.2869C17.1137 20.1591 17.2639 20.0587 17.4365 19.9856C17.6092 19.9109 17.7927 19.8735 17.9869 19.8735H19.8247V22.6875ZM22.1107 22.6875H21.6002V20.3865H20.2505V19.8835H23.4579V20.3865H22.1107V22.6875ZM25.4327 22.6875H24.9222V20.3865H23.5725V19.8835H26.7799V20.3865H25.4327V22.6875ZM30.1317 22.6875H27.2032V19.8735H30.1317V20.3865H27.7187V22.172H30.1317V22.6875ZM29.8055 21.5246H27.9602V21.0091H29.8055V21.5246ZM34.0015 22.6875H33.3067L32.5099 21.928H31.4764V21.4225H32.8884C32.9598 21.4225 33.027 21.4084 33.0901 21.3801C33.1532 21.3519 33.208 21.3146 33.2544 21.2681C33.3009 21.2199 33.3374 21.1643 33.364 21.1012C33.3906 21.0381 33.4039 20.9717 33.4039 20.902C33.4039 20.8306 33.3906 20.7642 33.364 20.7028C33.3374 20.6397 33.3009 20.5849 33.2544 20.5384C33.208 20.492 33.1532 20.4554 33.0901 20.4289C33.027 20.4006 32.9598 20.3865 32.8884 20.3865H31.21V22.6875H30.6995V19.8835H32.8884C33.0295 19.8835 33.1623 19.9109 33.2868 19.9657C33.4113 20.0188 33.5192 20.0919 33.6105 20.1848C33.7035 20.2761 33.7766 20.384 33.8297 20.5086C33.8828 20.6314 33.9094 20.7626 33.9094 20.902C33.9094 21.0166 33.8911 21.127 33.8546 21.2332C33.8181 21.3378 33.7666 21.4341 33.7002 21.5221C33.6354 21.6084 33.5582 21.6831 33.4686 21.7462C33.379 21.8093 33.281 21.8558 33.1748 21.8856L34.0015 22.6875ZM37.6273 21.8607C37.6273 21.9753 37.5999 22.0832 37.5451 22.1845C37.492 22.2841 37.4189 22.3712 37.326 22.4459C37.2346 22.5207 37.1267 22.5796 37.0022 22.6228C36.8777 22.6659 36.7457 22.6875 36.6063 22.6875H34.4124V22.177H36.6063C36.676 22.177 36.7416 22.1695 36.803 22.1546C36.8661 22.138 36.9209 22.1156 36.9674 22.0874C37.0138 22.0575 37.0504 22.0234 37.0769 21.9853C37.1035 21.9471 37.1168 21.9056 37.1168 21.8607V21.7337H35.4284C35.289 21.7337 35.157 21.7072 35.0325 21.6541C34.9096 21.5993 34.8017 21.5262 34.7087 21.4349C34.6174 21.3419 34.5452 21.234 34.4921 21.1112C34.439 20.9867 34.4124 20.8539 34.4124 20.7128V19.8835H34.9179V20.7128C34.9179 20.7841 34.9312 20.8514 34.9578 20.9145C34.9843 20.9759 35.0208 21.0298 35.0673 21.0763C35.1138 21.1212 35.1678 21.1568 35.2292 21.1834C35.2923 21.21 35.3587 21.2232 35.4284 21.2232H37.1168V19.8835H37.6273V21.8607Z" fill="white"/>
<path d="M4.37034 15.8223C4.37034 15.965 4.34378 16.0987 4.29065 16.2232C4.23753 16.346 4.16448 16.454 4.07151 16.5469C3.98021 16.6382 3.8723 16.7104 3.74778 16.7636C3.62493 16.8167 3.49295 16.8433 3.35184 16.8433H0.249022V16.3328H3.35184C3.42323 16.3328 3.48963 16.3195 3.55106 16.2929C3.61248 16.2664 3.66561 16.2298 3.71043 16.1834C3.75692 16.1369 3.79344 16.0829 3.82 16.0215C3.84656 15.9584 3.85984 15.892 3.85984 15.8223C3.85984 15.7525 3.84656 15.687 3.82 15.6255C3.79344 15.5641 3.75692 15.5102 3.71043 15.4637C3.66561 15.4172 3.61248 15.3807 3.55106 15.3541C3.48963 15.3275 3.42323 15.3143 3.35184 15.3143H1.27001C1.13056 15.3143 0.998579 15.2877 0.874068 15.2346C0.749557 15.1815 0.640817 15.1092 0.547849 15.0179C0.456541 14.925 0.383494 14.8162 0.328709 14.6917C0.275585 14.5672 0.249022 14.4344 0.249022 14.2933C0.249022 14.1538 0.275585 14.0218 0.328709 13.8973C0.383494 13.7728 0.456541 13.6649 0.547849 13.5736C0.640817 13.4806 0.749557 13.4076 0.874068 13.3545C0.998579 13.2997 1.13056 13.2723 1.27001 13.2723H4.11634V13.7828H1.27001C1.20029 13.7828 1.13388 13.7961 1.0708 13.8226C1.00937 13.8492 0.955415 13.8857 0.908931 13.9322C0.862447 13.9787 0.825924 14.0335 0.799361 14.0965C0.772799 14.158 0.759518 14.2235 0.759518 14.2933C0.759518 14.363 0.772799 14.4294 0.799361 14.4925C0.825924 14.5539 0.862447 14.6079 0.908931 14.6544C0.955415 14.7008 1.00937 14.7374 1.0708 14.7639C1.13388 14.7905 1.20029 14.8038 1.27001 14.8038H3.35184C3.49295 14.8038 3.62493 14.8312 3.74778 14.8859C3.8723 14.9391 3.98021 15.0121 4.07151 15.1051C4.16448 15.1964 4.23753 15.3043 4.29065 15.4288C4.34378 15.5517 4.37034 15.6828 4.37034 15.8223ZM7.93883 14.0393V15.4413C7.93883 15.6355 7.90231 15.8181 7.82926 15.9891C7.75621 16.1585 7.65577 16.307 7.52794 16.4349C7.40177 16.561 7.25402 16.6606 7.08468 16.7337C6.91535 16.8067 6.73439 16.8433 6.54181 16.8433H6.26042C6.06784 16.8433 5.88689 16.8067 5.71755 16.7337C5.54822 16.659 5.39963 16.5585 5.2718 16.4324C5.14563 16.3045 5.04602 16.156 4.97297 15.9866C4.89993 15.8156 4.8634 15.6338 4.8634 15.4413V14.0393H5.3739V15.4413C5.3739 15.5641 5.39714 15.6803 5.44363 15.7899C5.49011 15.8978 5.5532 15.9924 5.63288 16.0738C5.71423 16.1535 5.80803 16.2166 5.91428 16.263C6.02219 16.3095 6.13757 16.3328 6.26042 16.3328H6.54181C6.66466 16.3328 6.78004 16.3095 6.88795 16.263C6.99586 16.2166 7.08966 16.1535 7.16935 16.0738C7.24904 15.9924 7.31212 15.8978 7.35861 15.7899C7.40509 15.6803 7.42833 15.5641 7.42833 15.4413V14.0393H7.93883ZM11.206 16.8433C11.206 16.6573 11.1745 16.4772 11.1114 16.3029C11.0499 16.1269 10.9661 15.9617 10.8599 15.8073C10.7553 15.6513 10.6332 15.506 10.4938 15.3715C10.356 15.2371 10.2107 15.1175 10.058 15.0129C9.90527 14.9067 9.74922 14.8179 9.58985 14.7465C9.43213 14.6734 9.28189 14.6195 9.13912 14.5846V16.8433H8.62862V14.0393H8.90503V14.0443C9.08765 14.0542 9.28189 14.0949 9.48775 14.1663C9.69526 14.236 9.90112 14.3315 10.1053 14.4526C10.3112 14.5722 10.5087 14.715 10.698 14.881C10.8889 15.0453 11.0582 15.2271 11.206 15.4263V14.0393H11.714V16.8433H11.206ZM15.6062 14.0393L14.1743 16.8433H13.5916L12.1498 14.0393H12.73L13.883 16.278L15.031 14.0393H15.6062ZM19.0701 14.0393V15.4413C19.0701 15.6355 19.0336 15.8181 18.9606 15.9891C18.8875 16.1585 18.7871 16.307 18.6592 16.4349C18.5331 16.561 18.3853 16.6606 18.216 16.7337C18.0466 16.8067 17.8657 16.8433 17.6731 16.8433H17.3917C17.1991 16.8433 17.0182 16.8067 16.8488 16.7337C16.6795 16.659 16.5309 16.5585 16.4031 16.4324C16.2769 16.3045 16.1773 16.156 16.1043 15.9866C16.0312 15.8156 15.9947 15.6338 15.9947 15.4413V14.0393H16.5052V15.4413C16.5052 15.5641 16.5284 15.6803 16.5749 15.7899C16.6214 15.8978 16.6845 15.9924 16.7642 16.0738C16.8455 16.1535 16.9393 16.2166 17.0456 16.263C17.1535 16.3095 17.2689 16.3328 17.3917 16.3328H17.6731C17.796 16.3328 17.9113 16.3095 18.0192 16.263C18.1272 16.2166 18.221 16.1535 18.3006 16.0738C18.3803 15.9924 18.4434 15.8978 18.4899 15.7899C18.5364 15.6803 18.5596 15.5641 18.5596 15.4413V14.0393H19.0701ZM22.6884 16.8433H19.7599V14.0293H22.6884V14.5423H20.2754V16.3278H22.6884V16.8433ZM22.3622 15.6803H20.5169V15.1649H22.3622V15.6803ZM25.9406 16.8433H23.2562V14.0393H23.7667V16.3328H25.9406V16.8433ZM29.0584 16.8433H26.3739V14.0393H26.8844V16.3328H29.0584V16.8433ZM32.4202 16.8433H29.4917V14.0293H32.4202V14.5423H30.0072V16.3278H32.4202V16.8433ZM32.094 15.6803H30.2487V15.1649H32.094V15.6803Z" fill="white"/>
</svg>
