<svg width="25" height="26" viewBox="0 0 25 26" fill="none" xmlns="http://www.w3.org/2000/svg">
<g clip-path="url(#clip0_191_57)">
<path d="M24.2866 17.6731L18.8179 15.3294C18.5843 15.2298 18.3246 15.2088 18.078 15.2696C17.8315 15.3304 17.6113 15.4696 17.4507 15.6663L15.0288 18.6253C11.2279 16.8332 8.16904 13.7743 6.37695 9.97343L9.33594 7.55156C9.53305 7.39125 9.67256 7.17108 9.73335 6.92439C9.79414 6.6777 9.7729 6.41791 9.67285 6.18437L7.3291 0.715622C7.21929 0.463868 7.02508 0.25832 6.77996 0.13442C6.53483 0.0105201 6.25416 -0.0239651 5.98633 0.0369108L0.908203 1.20879C0.649985 1.26841 0.419602 1.4138 0.254656 1.62123C0.0897096 1.82865 -5.94829e-05 2.08586 2.95713e-08 2.35088C2.95713e-08 14.8753 10.1514 25.0071 22.6562 25.0071C22.9213 25.0073 23.1787 24.9176 23.3862 24.7526C23.5937 24.5877 23.7392 24.3572 23.7988 24.0989L24.9707 19.0208C25.0312 18.7517 24.996 18.4699 24.8711 18.2239C24.7463 17.9779 24.5396 17.7832 24.2866 17.6731V17.6731Z" fill="#F3760D"/>
</g>
<defs>
<clipPath id="clip0_191_57">
<rect width="25" height="25" fill="white" transform="translate(0 0.00708008)"/>
</clipPath>
</defs>
</svg>
