<svg width="101" height="88" viewBox="0 0 101 88" fill="none" xmlns="http://www.w3.org/2000/svg">
<path d="M50.5767 37.8129C35.0669 37.8129 13.0767 61.7895 13.0767 76.9242C13.0767 83.7406 18.313 87.8129 27.0884 87.8129C36.6275 87.8129 42.9263 82.9145 50.5767 82.9145C58.2935 82.9145 64.6099 87.8129 74.065 87.8129C82.8404 87.8129 88.0767 83.7406 88.0767 76.9242C88.0767 61.7895 66.0865 37.8129 50.5767 37.8129ZM21.8111 35.35C19.7798 28.5824 13.522 24.1996 7.83451 25.559C2.14701 26.9184 -0.815884 33.5063 1.21537 40.2738C3.24662 47.0414 9.50443 51.4242 15.1919 50.0649C20.8794 48.7055 23.8423 42.1176 21.8111 35.35V35.35ZM38.3579 31.2914C44.4009 29.7016 47.4244 21.5375 45.1119 13.057C42.7994 4.57657 36.0259 -1.00741 29.9829 0.582432C23.94 2.17228 20.9165 10.3363 23.229 18.8168C25.5415 27.2973 32.3169 32.8832 38.3579 31.2914ZM93.3169 25.5609C87.6294 24.2016 81.3736 28.5844 79.3404 35.352C77.3091 42.1195 80.272 48.7074 85.9595 50.0668C91.647 51.4262 97.9029 47.0434 99.9361 40.2758C101.967 33.5082 99.0044 26.9203 93.3169 25.5609V25.5609ZM62.7954 31.2914C68.8384 32.8813 75.6118 27.2973 77.9243 18.8168C80.2368 10.3363 77.2134 2.17423 71.1704 0.582432C65.1275 -1.00937 58.354 4.57657 56.0415 13.057C53.729 21.5375 56.7525 29.7016 62.7954 31.2914V31.2914Z" fill="#F3760D"/>
</svg>
